<svg xmlns="http://www.w3.org/2000/svg" viewBox="0 0 56.79 56.79"><defs><style>.cls-1{fill:#ea3329;}</style></defs><g id="Capa_2" data-name="Capa 2"><g id="Capa_1-2" data-name="Capa 1"><path class="cls-1" d="M28.4,0a10.44,10.44,0,0,0-9.26,6.06A10.4,10.4,0,0,0,8.32,8.32,10.4,10.4,0,0,0,6.06,19.14,10.44,10.44,0,0,0,0,28.4a10.43,10.43,0,0,0,6.06,9.25A10.42,10.42,0,0,0,8.32,48.48a10.42,10.42,0,0,0,10.82,2.25,10.44,10.44,0,0,0,9.26,6.06,10.43,10.43,0,0,0,9.25-6.06A10.08,10.08,0,0,0,50.73,37.65a10.43,10.43,0,0,0,6.06-9.25,10.44,10.44,0,0,0-6.06-9.26A10.42,10.42,0,0,0,48.48,8.32,10.42,10.42,0,0,0,37.65,6.06,10.43,10.43,0,0,0,28.4,0Z"/></g></g></svg>