<svg xmlns="http://www.w3.org/2000/svg" viewBox="0 0 52.47 52.47"><defs><style>.cls-1{fill:#191919;}.cls-2{fill:#efb254;}.cls-3{fill:#5a3a1b;}.cls-4{fill:#f9e079;}.cls-5{fill:#d26442;}.cls-6{fill:#97c355;}.cls-7{fill:#fcf4ee;}</style></defs><g id="Capa_2" data-name="Capa 2"><g id="Capa_1-2" data-name="Capa 1"><circle class="cls-1" cx="26.23" cy="26.23" r="26.23"/><path class="cls-2" d="M37.31,23.18a11.59,11.59,0,0,1,3.28,6,12.13,12.13,0,0,1-.68,6.68,13.82,13.82,0,0,1-1.86,3.4,11.15,11.15,0,0,1-2.81,2.62,11.27,11.27,0,0,1-3.81,1.55,15,15,0,0,1-4.78.18,24.2,24.2,0,0,1-5.8-1.49,26.15,26.15,0,0,1-4-1.89,20.1,20.1,0,0,1-3-2.21,13.24,13.24,0,0,1-2.12-2.45,11.29,11.29,0,0,1-1.83-5.34A11.43,11.43,0,0,1,10,27.48a13.8,13.8,0,0,1,.73-2.68,13.24,13.24,0,0,1,1.64-3.1,11.36,11.36,0,0,1,2.3-2.39,10.83,10.83,0,0,1,2.9-1.57,12.79,12.79,0,0,1,3.5-.7,17.06,17.06,0,0,1,4.08.25,24.69,24.69,0,0,1,4.61,1.3A20.42,20.42,0,0,1,37.31,23.18Z"/><path class="cls-1" d="M28.58,43.93a19.15,19.15,0,0,1-2-.11,24.13,24.13,0,0,1-5.85-1.5,25.62,25.62,0,0,1-4-1.91,19.31,19.31,0,0,1-3.07-2.24,13,13,0,0,1-2.16-2.49,11.54,11.54,0,0,1-1.86-5.45,11.38,11.38,0,0,1,.13-2.79,13.52,13.52,0,0,1,.74-2.72,13.68,13.68,0,0,1,1.67-3.15,11.27,11.27,0,0,1,2.34-2.43,10.93,10.93,0,0,1,3-1.61,12.78,12.78,0,0,1,3.55-.71,17.41,17.41,0,0,1,4.13.25,25.2,25.2,0,0,1,4.66,1.31A20.85,20.85,0,0,1,37.47,23h0a11.85,11.85,0,0,1,3.34,6.11,12.38,12.38,0,0,1-.69,6.8,13.91,13.91,0,0,1-1.89,3.45,11.2,11.2,0,0,1-6.75,4.26A14,14,0,0,1,28.58,43.93ZM22,17.23q-.49,0-1,0a13,13,0,0,0-3.43.69,10.25,10.25,0,0,0-2.84,1.54,11.17,11.17,0,0,0-2.26,2.34,13.13,13.13,0,0,0-1.61,3,13.78,13.78,0,0,0-.72,2.64,11.06,11.06,0,0,0-.12,2.69,10.82,10.82,0,0,0,.53,2.66,11.39,11.39,0,0,0,1.26,2.58A12.37,12.37,0,0,0,14,37.84,18.42,18.42,0,0,0,17,40a24.74,24.74,0,0,0,4,1.88,23.67,23.67,0,0,0,5.74,1.47,14.9,14.9,0,0,0,4.72-.17,11.25,11.25,0,0,0,3.72-1.52,10.75,10.75,0,0,0,2.76-2.57,13.18,13.18,0,0,0,1.83-3.34,12,12,0,0,0,.67-6.56,11.46,11.46,0,0,0-3.22-5.88h0a20.58,20.58,0,0,0-7.46-4.53,25.36,25.36,0,0,0-4.58-1.29A18.63,18.63,0,0,0,22,17.23Z"/><path class="cls-3" d="M12.53,29.8l4.39,3a42.5,42.5,0,0,0,5,3.08c3.69,1.83,7.82,2.54,11.89,3.06a9.38,9.38,0,0,0,4.57-.19c1.42-.55,2.53-2,2.06-3.48a4.7,4.7,0,0,0-1.9-2.11A52.24,52.24,0,0,0,16.22,24c-1.71-.27-4.71-1.05-6.1.32C8.17,26.28,10.92,28.7,12.53,29.8Z"/><path class="cls-1" d="M36.09,39.36a18.91,18.91,0,0,1-2.33-.19c-4.65-.59-8.46-1.34-12-3.08a42.19,42.19,0,0,1-5-3.09l-4.4-3h0c-.9-.61-3-2.23-3.16-3.95A2.21,2.21,0,0,1,10,24.2c1.29-1.27,3.76-.83,5.56-.51l.73.13a51.3,51.3,0,0,1,8,1.89A51.87,51.87,0,0,1,38.65,33a5,5,0,0,1,2,2.22c.53,1.6-.72,3.2-2.19,3.76A6.38,6.38,0,0,1,36.09,39.36ZM12.65,29.61l4.4,3A41.67,41.67,0,0,0,22,35.69c3.44,1.71,7.21,2.45,11.82,3a9.22,9.22,0,0,0,4.46-.18c1.27-.49,2.37-1.85,1.93-3.2a4.45,4.45,0,0,0-1.82-2,51.37,51.37,0,0,0-14.31-7.22,51.7,51.7,0,0,0-7.89-1.88l-.74-.13c-1.71-.3-4-.72-5.17.39A1.77,1.77,0,0,0,9.68,26c.14,1.57,2.31,3.17,3,3.62Z"/><path class="cls-4" d="M36.77,30.3c-5.33-3.6-11.35-6-17.34-8.3a17.91,17.91,0,0,0-6.07-1.53,6.65,6.65,0,0,0-5.23,2.21A3,3,0,0,0,8.2,23c.06.26.12.51.16.76a2.72,2.72,0,0,1,.58-.12c1.9.15,4,2.09,5.49,3.13a47.53,47.53,0,0,1,6.45,5,16.14,16.14,0,0,1,4.35,7c.07,0,1.23-.24,1.23-.24a17,17,0,0,1,7.88-2.21h.49a29.59,29.59,0,0,1,3.39-.41,10.83,10.83,0,0,1,2.9.08,2.08,2.08,0,0,1,.48.17l.3-.79A18.57,18.57,0,0,0,36.77,30.3Z"/><path class="cls-1" d="M25.24,39a.17.17,0,0,1-.09,0,.22.22,0,0,1-.14-.14A15.7,15.7,0,0,0,20.73,32a46.09,46.09,0,0,0-6.43-5c-.33-.23-.69-.5-1.07-.79-1.29-1-2.89-2.18-4.31-2.3a2.36,2.36,0,0,0-.31.07l-.2.05a.29.29,0,0,1-.18,0,.24.24,0,0,1-.09-.15c0-.23-.09-.45-.15-.69v-.05c0-.12-.05-.24-.07-.35a.22.22,0,0,1,0-.17,6.82,6.82,0,0,1,5.41-2.29,18.13,18.13,0,0,1,6.14,1.54c6.16,2.37,12.13,4.78,17.39,8.32a18.94,18.94,0,0,1,5.18,5.12.2.2,0,0,1,0,.21l-.3.79a.21.21,0,0,1-.13.13.23.23,0,0,1-.18,0,2.23,2.23,0,0,0-.43-.16,10.1,10.1,0,0,0-2.7-.09h-.14a30,30,0,0,0-3.36.41h0a3.85,3.85,0,0,0-.48,0,16.82,16.82,0,0,0-7.78,2.18l0,0A8,8,0,0,1,25.24,39ZM8.92,23.42H9c1.55.12,3.14,1.32,4.54,2.38.37.29.73.56,1.05.78A46.81,46.81,0,0,1,21,31.64a16.3,16.3,0,0,1,4.35,6.86c.22,0,.63-.12,1-.2a17.14,17.14,0,0,1,8-2.22h.48a30.48,30.48,0,0,1,3.39-.42h.13a10.36,10.36,0,0,1,2.83.1,1.49,1.49,0,0,1,.3.09l.18-.47a18.5,18.5,0,0,0-5-4.91C31.43,27,25.49,24.56,19.34,22.21a17.67,17.67,0,0,0-6-1.51,6.43,6.43,0,0,0-5,2c0,.07,0,.14.05.21V23c0,.16.08.32.11.48A1.76,1.76,0,0,1,8.92,23.42Z"/><path class="cls-1" d="M8,22.54c.93-.81,2.82.37,3.67.93a10,10,0,0,0-1.73-.71,2.31,2.31,0,0,0-1.49,0,.29.29,0,0,0-.1.08A.22.22,0,0,1,8,22.54Z"/><path class="cls-1" d="M21.43,30.93a21.71,21.71,0,0,1,4.27,5.4,12.23,12.23,0,0,1,1,2.11l-.32-.12c2.53-1.45,5.26-3,8.29-2.81a11.89,11.89,0,0,0-4.21,1.11c-.66.3-1.3.65-1.94,1L26.57,38.7a.22.22,0,0,1-.32-.12,18.58,18.58,0,0,0-2.07-4,28.48,28.48,0,0,0-2.75-3.64Z"/><path class="cls-5" d="M28.28,28.18a2.77,2.77,0,0,0-1.46.2A2,2,0,0,0,26,30.53a4.46,4.46,0,0,0,1.3,2.07,13.93,13.93,0,0,0,7.71,4,3.78,3.78,0,0,0,2.51-.25,2.28,2.28,0,0,0,.77-3.09,11.73,11.73,0,0,0-2.24-1.9A13.56,13.56,0,0,0,28.28,28.18Z"/><path class="cls-1" d="M36.06,36.9A7.26,7.26,0,0,1,35,36.81a14.21,14.21,0,0,1-7.83-4.05,4.71,4.71,0,0,1-1.36-2.18,2.19,2.19,0,0,1,.93-2.4A2.91,2.91,0,0,1,28.29,28a13.79,13.79,0,0,1,7.92,3.22c.19.16.43.34.69.52a6.28,6.28,0,0,1,1.58,1.43,2.34,2.34,0,0,1,.3,1.82,2.45,2.45,0,0,1-1.13,1.58A3.11,3.11,0,0,1,36.06,36.9Zm-8.19-8.51a2,2,0,0,0-.94.19,1.76,1.76,0,0,0-.71,1.9,4.37,4.37,0,0,0,1.25,2,13.67,13.67,0,0,0,7.59,3.92,3.58,3.58,0,0,0,2.36-.22,2.05,2.05,0,0,0,.92-1.3,1.9,1.9,0,0,0-.23-1.47,5.74,5.74,0,0,0-1.47-1.31c-.27-.19-.51-.37-.72-.55a13.38,13.38,0,0,0-7.66-3.11h-.39Z"/><path class="cls-5" d="M13.4,23.62c-.26.21-.28.39-.48.85a2.84,2.84,0,0,0,.3,2,4.91,4.91,0,0,0,1.22,1.39,8.37,8.37,0,0,0,4.83,2.2,4.42,4.42,0,0,0,4.37-2.53,2.41,2.41,0,0,0,.14-1.4c-.37-1.65-2.91-2.75-4.38-3.16C17.66,22.52,14.83,22.5,13.4,23.62Z"/><path class="cls-1" d="M19.5,30.33h-.24a8.53,8.53,0,0,1-5-2.25A5,5,0,0,1,13,26.62a3,3,0,0,1-.31-2.24l.11-.27a1.34,1.34,0,0,1,.43-.67h0c1.46-1.14,4.28-1.18,6.2-.65S23.64,24.5,24,26.12a2.55,2.55,0,0,1-.15,1.52A4.61,4.61,0,0,1,19.5,30.33Zm-6-6.53c-.16.12-.19.21-.3.47a2.75,2.75,0,0,1-.11.29,2.68,2.68,0,0,0,.29,1.85,4.77,4.77,0,0,0,1.16,1.32,8.16,8.16,0,0,0,4.7,2.15,4.22,4.22,0,0,0,4.15-2.39,2.27,2.27,0,0,0,.13-1.28c-.34-1.52-2.81-2.59-4.22-3-1.84-.52-4.51-.44-5.8.57Z"/><path class="cls-1" d="M13.4,23.62C13,24.91,14,26,15,26.72a14.1,14.1,0,0,0,3.21,2,5.81,5.81,0,0,1-1.86-.61c-1.48-.78-4-2.62-2.92-4.53Z"/><path class="cls-1" d="M21.08,28.82a8.19,8.19,0,0,0,2.83-2.36,2.88,2.88,0,0,1-2.83,2.36Z"/><path class="cls-1" d="M30.65,33.84a19.26,19.26,0,0,0,4.23,1.46A3.65,3.65,0,0,0,38,34.85c.28-.17.62-.5.45-.86.28.34,0,.81-.32,1a3.41,3.41,0,0,1-3.33.71,9.29,9.29,0,0,1-4.14-1.9Z"/><path class="cls-6" d="M10,20.32a1.93,1.93,0,0,0,.27.3c.74.68,2,.85,2.39,1.76.18.38.17.84.37,1.21.32.63,1.06.86,1.63,1.19s1.1.9,1.71,1.29a10.58,10.58,0,0,0,2.25,1.08,4.29,4.29,0,0,0,2.14.36,3.33,3.33,0,0,1,1.35-.19,1.27,1.27,0,0,1,.89.92A2.18,2.18,0,0,1,23,29.55a1.81,1.81,0,0,0,.25,1.79,7.37,7.37,0,0,0,1.68,1.71,2.55,2.55,0,0,0,1,.59,1.63,1.63,0,0,0,1.6-.69c.13-.18.27-.39.49-.41a.82.82,0,0,1,.39.15c1.05.59,2.36,0,3.55.2s2.16,1,3.25,1.45a13.14,13.14,0,0,0,3.14.44,3.66,3.66,0,0,0,1.91-.55,4.92,4.92,0,0,1,1.92-.39,3.16,3.16,0,0,0,1.23-.09,1.64,1.64,0,0,0,.91-1.81,1.26,1.26,0,0,0-.64-1,1.6,1.6,0,0,0-.57-.11,11.78,11.78,0,0,0-1.68,0,2,2,0,0,1-.87-.05c-.34-.13-.46-.44-.73-.62A2.54,2.54,0,0,0,39,30a12.66,12.66,0,0,0-2.3-.36,5.24,5.24,0,0,1-2.37-.47,3.67,3.67,0,0,1-1-1.1c-.77-1.08-1.39-2.25-2.16-3.32a7.73,7.73,0,0,0-2.91-2.63,4,4,0,0,0-3.79.13c-1.39-1.4-3.92-.53-5.62-1.55a5.76,5.76,0,0,0-2.24-1.21A14.75,14.75,0,0,1,14.84,19a7.22,7.22,0,0,1-1.56-.35,2.37,2.37,0,0,1-.48-.47,2.79,2.79,0,0,0-1-.68,1.72,1.72,0,0,0-1-.14,1.58,1.58,0,0,0-1.1,1.12A2.18,2.18,0,0,0,10,20.32Z"/><path class="cls-1" d="M38.53,35l-.27,0a10.73,10.73,0,0,0-1.14-.1,5.64,5.64,0,0,1-2-.35A11,11,0,0,1,33.94,34a5.9,5.9,0,0,0-2.06-.84,6.11,6.11,0,0,0-1.35,0,3.86,3.86,0,0,1-2.28-.25l-.05,0a.59.59,0,0,0-.22-.09c-.09,0-.19.14-.28.26l0,0a1.86,1.86,0,0,1-1.83.78,2.85,2.85,0,0,1-1.09-.63A7.62,7.62,0,0,1,23,31.46a2,2,0,0,1-.27-2,2,2,0,0,0,.07-1.18,1.06,1.06,0,0,0-.73-.76,2,2,0,0,0-.86.09l-.4.1a4.61,4.61,0,0,1-2.25-.36,11.36,11.36,0,0,1-2.3-1.11,8.48,8.48,0,0,1-.8-.62,5.61,5.61,0,0,0-.89-.67l-.39-.19a2.76,2.76,0,0,1-1.34-1.08,3.07,3.07,0,0,1-.22-.69,3.06,3.06,0,0,0-.15-.54,2.52,2.52,0,0,0-1.26-1,5,5,0,0,1-1.08-.68,3.17,3.17,0,0,1-.3-.34,2.42,2.42,0,0,1-.36-2.08,1.84,1.84,0,0,1,1.27-1.27,1.83,1.83,0,0,1,1.15.15A3,3,0,0,1,13,18l.11.12a1.58,1.58,0,0,0,.33.31,2.36,2.36,0,0,0,.85.21,3.39,3.39,0,0,1,.65.11c.19.05.38.12.57.18a7.21,7.21,0,0,0,1.1.31,3.52,3.52,0,0,1,1.68.8,6,6,0,0,0,.64.43,5.71,5.71,0,0,0,2.53.58,5,5,0,0,1,3,.89,4.19,4.19,0,0,1,3.86-.05,7.77,7.77,0,0,1,3,2.7c.4.55.77,1.14,1.12,1.71s.67,1.09,1,1.61a3.43,3.43,0,0,0,1,1,4.15,4.15,0,0,0,1.94.41l.33,0a13,13,0,0,1,2.34.37l.18,0a2.1,2.1,0,0,1,.69.24,1.72,1.72,0,0,1,.34.31.87.87,0,0,0,.35.29,1.7,1.7,0,0,0,.72,0h.06a10.72,10.72,0,0,1,1.7,0,1.64,1.64,0,0,1,.65.13,1.46,1.46,0,0,1,.77,1.13A1.86,1.86,0,0,1,43.44,34a2.74,2.74,0,0,1-1.06.11h-.25a4.85,4.85,0,0,0-1.83.36l-.37.17A3.39,3.39,0,0,1,38.53,35Zm-7.11-2.38a4.53,4.53,0,0,1,.52,0,6.19,6.19,0,0,1,2.22.9,11.29,11.29,0,0,0,1.09.57,5.36,5.36,0,0,0,1.89.31,11.93,11.93,0,0,1,1.19.1,2.52,2.52,0,0,0,1.41-.35c.13-.06.26-.13.39-.18a5.29,5.29,0,0,1,2-.4h.26a2.57,2.57,0,0,0,.89-.09A1.41,1.41,0,0,0,44.05,32a1,1,0,0,0-.51-.8,1.3,1.3,0,0,0-.49-.09,11.36,11.36,0,0,0-1.65,0h0a2.07,2.07,0,0,1-.92-.07,1.26,1.26,0,0,1-.53-.41,1.13,1.13,0,0,0-.25-.24,1.83,1.83,0,0,0-.53-.17l-.2,0a13,13,0,0,0-2.26-.35l-.32,0a4.47,4.47,0,0,1-2.16-.48,4.12,4.12,0,0,1-1.12-1.16c-.37-.53-.72-1.09-1.05-1.63s-.71-1.15-1.1-1.69a7.48,7.48,0,0,0-2.82-2.56,3.74,3.74,0,0,0-3.57.12.23.23,0,0,1-.29,0,4.27,4.27,0,0,0-2.84-.88,6.16,6.16,0,0,1-2.73-.64c-.25-.15-.47-.31-.68-.46a3.16,3.16,0,0,0-1.48-.72,6.86,6.86,0,0,1-1.18-.32c-.19-.07-.36-.13-.54-.18a4.35,4.35,0,0,0-.58-.1,2.47,2.47,0,0,1-1-.27,2,2,0,0,1-.43-.39.52.52,0,0,0-.1-.11,2.6,2.6,0,0,0-.9-.64,1.45,1.45,0,0,0-.89-.12,1.36,1.36,0,0,0-.93,1,1.94,1.94,0,0,0,.29,1.68l.24.28a5.39,5.39,0,0,0,1,.61,2.86,2.86,0,0,1,1.46,1.21,2.59,2.59,0,0,1,.19.64,2.38,2.38,0,0,0,.18.57,2.28,2.28,0,0,0,1.14.88l.4.21a5.43,5.43,0,0,1,1,.72,8.34,8.34,0,0,0,.75.58,10.47,10.47,0,0,0,2.21,1.06,4.16,4.16,0,0,0,2,.35l.37-.09a2.27,2.27,0,0,1,1.07-.1,1.51,1.51,0,0,1,1.06,1.07,2.44,2.44,0,0,1-.08,1.45,1.59,1.59,0,0,0,.23,1.6A7.51,7.51,0,0,0,25,32.88a2.3,2.3,0,0,0,.91.54,1.39,1.39,0,0,0,1.37-.61l0,0a.88.88,0,0,1,.61-.45.82.82,0,0,1,.47.15l0,0a3.45,3.45,0,0,0,2,.2C30.79,32.67,31.1,32.64,31.42,32.64Z"/><path class="cls-5" d="M27.25,33.21a4.6,4.6,0,0,1,.68-1.41c.21-.27.66-.51,1-.26-.37.07-.52.35-.67.63a2.5,2.5,0,0,1-1,1Z"/><path class="cls-5" d="M32.73,33.11a3.59,3.59,0,0,0,1.08-.23,3.6,3.6,0,0,0,1-.36,1.13,1.13,0,0,1-.93.8l-.27,0a.91.91,0,0,1-.89-.26Z"/><path class="cls-5" d="M12.41,22c.72.18,1.17.75,1.9.91-.73.5-1.61-.23-1.9-.91Z"/><path class="cls-5" d="M41.61,33.85a2.61,2.61,0,0,1-1.7.12c-.56-.12-.89-.7-1.47-.58.43-.49,1.14,0,1.6.15s1,.18,1.57.31Z"/><path class="cls-2" d="M40.15,15.69a11.59,11.59,0,0,1,3.28,6,13.25,13.25,0,0,1-.28,6.68c-.85,2.65-1,2.42-1.79,3.44S35,31.74,26.27,28.42C19.13,25.71,12.68,20.9,12.84,20a13.78,13.78,0,0,1,.72-2.68,13.27,13.27,0,0,1,1.65-3.1,11.36,11.36,0,0,1,2.3-2.39,10.68,10.68,0,0,1,2.9-1.57,12.71,12.71,0,0,1,3.5-.7A17,17,0,0,1,28,9.8a25,25,0,0,1,4.62,1.3A20.42,20.42,0,0,1,40.15,15.69Z"/><path class="cls-1" d="M40,32.39c-2.78,0-8.54-1.78-13.78-3.76a50,50,0,0,1-9.5-4.91c-1-.67-4.22-2.89-4.07-3.77a14.19,14.19,0,0,1,.73-2.72A13.33,13.33,0,0,1,15,14.08a11.27,11.27,0,0,1,2.34-2.43,10.87,10.87,0,0,1,3-1.61,12.86,12.86,0,0,1,3.56-.71A17.41,17.41,0,0,1,28,9.58a25.2,25.2,0,0,1,4.66,1.31,20.85,20.85,0,0,1,7.63,4.64h0a11.93,11.93,0,0,1,3.34,6.11,13.29,13.29,0,0,1-.29,6.79c-.68,2.14-.94,2.45-1.41,3-.12.13-.25.29-.41.5A2,2,0,0,1,40,32.39ZM24.88,9.74q-.49,0-1,0a13.2,13.2,0,0,0-3.44.69A10.54,10.54,0,0,0,17.64,12a11.38,11.38,0,0,0-2.25,2.34,13.55,13.55,0,0,0-1.62,3A14.52,14.52,0,0,0,13.06,20c0,.74,6.09,5.46,13.28,8.19,10,3.77,14.33,4.13,14.84,3.46.16-.22.3-.38.42-.53.44-.51.68-.79,1.34-2.85a13,13,0,0,0,.27-6.57A11.54,11.54,0,0,0,40,15.84a20.54,20.54,0,0,0-7.47-4.53A24.91,24.91,0,0,0,27.94,10,18.52,18.52,0,0,0,24.88,9.74Z"/><path class="cls-7" d="M24.76,12.34c1.54-.18-.47-1.94-.7-.54a.47.47,0,0,0,.21.44A.75.75,0,0,0,24.76,12.34Z"/><path class="cls-7" d="M21.64,12.83a.59.59,0,0,0-.49.06.4.4,0,0,0,0,.56.84.84,0,0,0,.57.21.68.68,0,0,0,.66-.22C22.71,13,21.94,12.87,21.64,12.83Z"/><path class="cls-7" d="M28.35,11.36a.86.86,0,0,0-.43.43.54.54,0,0,0,0,.52.36.36,0,0,0,.23.15.67.67,0,0,0,.72-.25C29.14,11.81,28.93,11.13,28.35,11.36Z"/><path class="cls-7" d="M24.64,14.28a1.25,1.25,0,0,0-.28.37c-.08.16-.11.39,0,.49a.29.29,0,0,0,.13,0,.67.67,0,0,0,.61-.24.53.53,0,0,0,.05-.61.38.38,0,0,0-.56-.05Z"/><path class="cls-7" d="M31.53,14a.43.43,0,0,0,.36-.44.67.67,0,0,0-.31-.51C30.77,12.48,30.73,14.08,31.53,14Z"/><path class="cls-7" d="M27.65,15a.89.89,0,0,1-.4-1.16.42.42,0,0,1,.59,0,1.08,1.08,0,0,1,.34.56.62.62,0,0,1,0,.55A.42.42,0,0,1,27.65,15Z"/><path class="cls-7" d="M31.73,17.14c1.54-.18-.47-1.94-.7-.54a.46.46,0,0,0,.21.44A.7.7,0,0,0,31.73,17.14Z"/><path class="cls-7" d="M27.51,18.34a.59.59,0,0,0-.49.06A.4.4,0,0,0,27,19a.86.86,0,0,0,.58.21.68.68,0,0,0,.65-.21C28.58,18.46,27.8,18.38,27.51,18.34Z"/><path class="cls-7" d="M35.62,14.64a.9.9,0,0,0-.43.43.51.51,0,0,0,0,.52.4.4,0,0,0,.22.16.69.69,0,0,0,.73-.26C36.41,15.1,36.2,14.41,35.62,14.64Z"/><path class="cls-7" d="M35.46,18.63a1.25,1.25,0,0,0-.28.37c-.08.16-.11.39,0,.49a.29.29,0,0,0,.13.05.68.68,0,0,0,.62-.25.53.53,0,0,0,0-.6.38.38,0,0,0-.56-.05Z"/><path class="cls-7" d="M36.28,23.79a.43.43,0,0,0,.36-.44.66.66,0,0,0-.3-.51C35.52,22.27,35.48,23.86,36.28,23.79Z"/><path class="cls-7" d="M38.71,18.16a.89.89,0,0,1-.4-1.16.42.42,0,0,1,.59,0,1.08,1.08,0,0,1,.34.56.62.62,0,0,1,0,.55A.42.42,0,0,1,38.71,18.16Z"/></g></g></svg>